<svg width="176" height="58" viewBox="0 0 176 58" fill="none" xmlns="http://www.w3.org/2000/svg">
<path d="M62.6851 57.2466H11.6611V0.554589H62.6851V57.2466Z" fill="#C94416"/>
<path d="M5.99162 57.2466H0.322266V0.554589H5.99162V57.2466Z" fill="#C94416"/>
<path d="M78.7729 38.5371H75.6969L72.8022 34.6598L72.2236 35.3731V38.5371H69.7236V28.8424H72.2236V33.2318L75.6849 28.8424H78.585L74.7956 33.3291L78.7729 38.5371Z" fill="#C94416"/>
<path d="M85.5085 34.8011L84.3139 31.3238L83.1205 34.8011H85.5085ZM89.3685 38.5371H86.7859L86.1099 36.5798H82.5192L81.8445 38.5371H79.3271L82.9098 28.8424H85.7872L89.3685 38.5371Z" fill="#C94416"/>
<path d="M98.1473 38.5371H91.1553V28.8424H93.6553V36.6624H98.1473V38.5371Z" fill="#C94416"/>
<path d="M108.012 35.0281C108.012 36.2268 107.647 37.1441 106.917 37.7828C106.188 38.4201 105.112 38.7388 103.693 38.7388C102.272 38.7388 101.197 38.4201 100.472 37.7828C99.7439 37.1441 99.3799 36.2281 99.3799 35.0348V28.8428H101.893V34.8934C101.893 35.5654 102.035 36.0668 102.317 36.3974C102.599 36.7268 103.059 36.8921 103.693 36.8921C104.317 36.8921 104.776 36.7334 105.064 36.4161C105.353 36.0988 105.497 35.5921 105.497 34.8934V28.8428H108.012V35.0281Z" fill="#C94416"/>
<path d="M119.565 38.5371H117.156L113.036 31.8838V38.5371H110.745V28.8424H113.734L117.273 34.3971V28.8424H119.565V38.5371Z" fill="#C94416"/>
<path d="M129.011 33.6798C129.011 33.0424 128.895 32.4971 128.663 32.0438C128.429 31.5918 128.063 31.2358 127.559 30.9811C127.303 30.8544 127.04 30.7691 126.773 30.7238C126.507 30.6784 126.104 30.6558 125.567 30.6558H124.935V36.7184H125.567C126.161 36.7184 126.597 36.6904 126.875 36.6371C127.152 36.5824 127.424 36.4838 127.689 36.3411C128.144 36.0811 128.479 35.7318 128.692 35.2971C128.905 34.8611 129.011 34.3211 129.011 33.6798ZM131.593 33.6998C131.593 34.6024 131.388 35.4118 130.975 36.1251C130.564 36.8398 130.043 37.3878 129.413 37.7691C128.94 38.0558 128.421 38.2558 127.857 38.3678C127.293 38.4811 126.625 38.5371 125.853 38.5371H122.435V28.8424H125.951C126.74 28.8424 127.42 28.9091 127.993 29.0411C128.567 29.1744 129.048 29.3624 129.439 29.6051C130.108 30.0131 130.635 30.5624 131.019 31.2558C131.403 31.9478 131.593 32.7624 131.593 33.6998Z" fill="#C94416"/>
<path d="M139.604 35.5291C139.604 35.2198 139.544 34.9824 139.424 34.8144C139.305 34.6478 139.102 34.5238 138.816 34.4411C138.621 34.3838 138.352 34.3544 138.009 34.3491C137.666 34.3451 137.308 34.3424 136.934 34.3424H136.388V36.7598H136.57C137.273 36.7598 137.777 36.7584 138.081 36.7531C138.384 36.7491 138.664 36.6931 138.92 36.5838C139.181 36.4758 139.36 36.3304 139.457 36.1504C139.554 35.9704 139.604 35.7624 139.604 35.5291ZM139 31.5838C139 31.4238 138.96 31.2624 138.878 31.1024C138.798 30.9411 138.656 30.8224 138.452 30.7438C138.268 30.6758 138.04 30.6371 137.769 30.6304C137.497 30.6238 137.114 30.6211 136.624 30.6211H136.388V32.6691H136.78C137.176 32.6691 137.513 32.6624 137.792 32.6491C138.07 32.6371 138.29 32.5931 138.452 32.5198C138.677 32.4198 138.825 32.2904 138.894 32.1331C138.965 31.9744 139 31.7918 139 31.5838ZM142.2 35.5678C142.2 36.0358 142.106 36.4558 141.917 36.8238C141.729 37.1944 141.469 37.4998 141.138 37.7424C140.756 38.0291 140.337 38.2331 139.878 38.3544C139.42 38.4771 138.84 38.5371 138.137 38.5371H133.902V28.8424H137.666C138.448 28.8424 139.021 28.8691 139.382 28.9211C139.746 28.9731 140.104 29.0878 140.461 29.2651C140.829 29.4531 141.104 29.7024 141.284 30.0171C141.465 30.3318 141.554 30.6918 141.554 31.0944C141.554 31.5638 141.43 31.9771 141.184 32.3344C140.936 32.6931 140.585 32.9718 140.134 33.1704V33.2224C140.769 33.3491 141.272 33.6091 141.642 34.0051C142.016 34.3998 142.2 34.9211 142.2 35.5678Z" fill="#C94416"/>
<path d="M150.57 36.1494C150.811 35.8548 150.991 35.5068 151.109 35.1041C151.226 34.7028 151.285 34.2308 151.285 33.6868C151.285 33.1054 151.217 32.6094 151.083 32.2014C150.949 31.7934 150.773 31.4628 150.557 31.2108C150.336 30.9508 150.081 30.7614 149.793 30.6441C149.503 30.5268 149.204 30.4681 148.892 30.4681C148.576 30.4681 148.277 30.5254 147.997 30.6374C147.718 30.7508 147.461 30.9374 147.228 31.1988C147.01 31.4414 146.834 31.7774 146.697 32.2041C146.561 32.6334 146.493 33.1294 146.493 33.6934C146.493 34.2708 146.559 34.7628 146.691 35.1694C146.822 35.5761 146.997 35.9068 147.214 36.1628C147.43 36.4201 147.685 36.6081 147.974 36.7308C148.265 36.8521 148.572 36.9134 148.892 36.9134C149.213 36.9134 149.518 36.8508 149.808 36.7268C150.098 36.6028 150.353 36.4108 150.57 36.1494ZM153.881 33.6934C153.881 35.2388 153.44 36.4654 152.554 37.3748C151.669 38.2841 150.446 38.7388 148.885 38.7388C147.328 38.7388 146.108 38.2841 145.222 37.3748C144.338 36.4654 143.896 35.2388 143.896 33.6934C143.896 32.1361 144.338 30.9041 145.222 29.9988C146.108 29.0934 147.328 28.6428 148.885 28.6428C150.437 28.6428 151.658 29.0934 152.548 29.9988C153.437 30.9041 153.881 32.1361 153.881 33.6934Z" fill="#C94416"/>
<path d="M161.639 31.8131C161.639 31.5691 161.587 31.3611 161.487 31.1878C161.387 31.0144 161.215 30.8771 160.972 30.7771C160.803 30.7078 160.603 30.6651 160.377 30.6504C160.151 30.6358 159.887 30.6278 159.587 30.6278H158.68V33.2384H159.449C159.851 33.2384 160.185 33.2198 160.456 33.1798C160.725 33.1411 160.952 33.0518 161.135 32.9131C161.308 32.7784 161.436 32.6304 161.517 32.4678C161.596 32.3051 161.639 32.0864 161.639 31.8131ZM165.533 38.5371H162.479L159.84 34.9811H158.68V38.5371H156.193V28.8424H160.389C160.963 28.8424 161.456 28.8758 161.868 28.9411C162.281 29.0064 162.668 29.1478 163.028 29.3638C163.393 29.5811 163.683 29.8624 163.899 30.2064C164.113 30.5518 164.221 30.9838 164.221 31.5051C164.221 32.2211 164.055 32.8051 163.721 33.2571C163.388 33.7078 162.915 34.0838 162.296 34.3824L165.533 38.5371Z" fill="#C94416"/>
<path d="M175.599 37.9828C175.165 38.1521 174.589 38.3214 173.873 38.4881C173.157 38.6548 172.444 38.7388 171.732 38.7388C170.084 38.7388 168.792 38.2908 167.86 37.3948C166.927 36.4988 166.46 35.2601 166.46 33.6814C166.46 32.1761 166.931 30.9614 167.872 30.0388C168.813 29.1174 170.127 28.6561 171.808 28.6561C172.447 28.6561 173.055 28.7134 173.632 28.8281C174.208 28.9428 174.851 29.1721 175.557 29.5148V31.7881H175.277C175.156 31.6974 174.977 31.5681 174.744 31.4014C174.511 31.2334 174.284 31.0921 174.068 30.9761C173.815 30.8361 173.523 30.7174 173.185 30.6174C172.849 30.5188 172.492 30.4681 172.115 30.4681C171.673 30.4681 171.272 30.5334 170.912 30.6628C170.552 30.7934 170.229 30.9934 169.943 31.2614C169.669 31.5228 169.453 31.8534 169.295 32.2548C169.137 32.6548 169.057 33.1188 169.057 33.6428C169.057 34.7148 169.341 35.5348 169.909 36.1014C170.476 36.6708 171.316 36.9548 172.427 36.9548C172.523 36.9548 172.628 36.9521 172.743 36.9481C172.857 36.9441 172.963 36.9374 173.057 36.9281V35.0241H171.127V33.1974H175.599V37.9828Z" fill="#C94416"/>
<path d="M75.9718 50.0933H74.6372L71.5811 46.6399L70.8052 47.4626V50.0933H69.7705V42.3359H70.8052V46.3733L74.5598 42.3359H75.8118L72.3612 45.9826L75.9718 50.0933Z" fill="#C94416"/>
<path d="M83.0277 46.2174C83.0277 45.2094 82.8023 44.4334 82.3516 43.8854C81.901 43.3387 81.2863 43.0654 80.5063 43.0654C79.7183 43.0654 79.101 43.3387 78.6517 43.8854C78.2024 44.4334 77.9784 45.2094 77.9784 46.2174C77.9784 47.2347 78.2077 48.0134 78.665 48.5534C79.1224 49.0934 79.737 49.3641 80.5063 49.3641C81.2757 49.3641 81.8877 49.0934 82.3437 48.5534C82.7997 48.0134 83.0277 47.2347 83.0277 46.2174ZM83.125 43.2281C83.441 43.5761 83.6836 44.0014 83.8516 44.5041C84.0196 45.0081 84.1037 45.5787 84.1037 46.2174C84.1037 46.8561 84.0184 47.4281 83.8464 47.9334C83.6744 48.4387 83.433 48.8588 83.125 49.1961C82.805 49.5468 82.4277 49.8107 81.9917 49.9867C81.557 50.1641 81.0596 50.2534 80.501 50.2534C79.9556 50.2534 79.461 50.1627 79.0143 49.9814C78.5677 49.8014 78.189 49.5388 77.8757 49.1961C77.5637 48.8521 77.3237 48.4307 77.1544 47.9307C76.9864 47.4307 76.9023 46.8601 76.9023 46.2174C76.9023 45.5854 76.985 45.0187 77.1517 44.5174C77.3184 44.0161 77.5624 43.5867 77.881 43.2281C78.1877 42.8881 78.5664 42.6281 79.0197 42.4481C79.4717 42.2667 79.9663 42.1761 80.501 42.1761C81.0556 42.1761 81.5543 42.2681 81.997 42.4507C82.4397 42.6321 82.8157 42.8921 83.125 43.2281Z" fill="#C94416"/>
<path d="M93.2925 50.0933H92.2565V43.4093L90.1019 47.9533H89.4872L87.3486 43.4093V50.0933H86.3818V42.3359H87.7899L89.8578 46.6519L91.8565 42.3359H93.2925V50.0933Z" fill="#C94416"/>
<path d="M102.921 50.0933H101.887V43.4093L99.7314 47.9533H99.1167L96.9766 43.4093V50.0933H96.0127V42.3359H97.4194L99.486 46.6519L101.486 42.3359H102.921V50.0933Z" fill="#C94416"/>
<path d="M111.474 46.9774C111.474 47.5388 111.414 48.0294 111.29 48.4481C111.168 48.8667 110.966 49.2148 110.685 49.4921C110.417 49.7561 110.105 49.9494 109.749 50.0707C109.392 50.1921 108.974 50.2534 108.5 50.2534C108.016 50.2534 107.592 50.1881 107.232 50.0601C106.87 49.9321 106.568 49.7428 106.321 49.4921C106.04 49.2081 105.838 48.8641 105.716 48.4614C105.592 48.0587 105.53 47.5641 105.53 46.9774V42.3361H106.565V47.0267C106.565 47.4467 106.593 47.7787 106.65 48.0214C106.708 48.2641 106.805 48.4841 106.938 48.6814C107.09 48.9081 107.298 49.0774 107.558 49.1921C107.82 49.3067 108.134 49.3641 108.5 49.3641C108.87 49.3641 109.185 49.3081 109.445 49.1947C109.704 49.0827 109.912 48.9108 110.068 48.6814C110.201 48.4841 110.298 48.2587 110.356 48.0027C110.413 47.7481 110.44 47.4308 110.44 47.0521V42.3361H111.474V46.9774Z" fill="#C94416"/>
<path d="M120.006 50.0933H118.729L115.054 43.1533V50.0933H114.089V42.3359H115.69L119.041 48.6706V42.3359H120.006V50.0933Z" fill="#C94416"/>
<path d="M127.812 50.0933H122.708V42.3359H127.812V43.2533H123.744V45.3773H127.812V46.2946H123.744V49.1759H127.812V50.0933Z" fill="#C94416"/>
<path d="M54.0833 40.2494V42.6227H52.1754V40.2494H50.1767V42.6227H48.2673V40.2494H46.2687V42.6227H44.3607V40.2494H42.3634V42.6227H40.454V40.2494H38.4553V42.6227H36.5474V40.2494H34.6113V44.748H56.0207V40.2494H54.0833Z" fill="white"/>
<path d="M37.0028 50.344C36.4708 49.6293 35.9787 48.8786 35.5801 48.0213C35.9014 48.0306 36.3747 47.9827 36.8681 47.8453C37.6174 47.6373 38.1054 47.3453 38.5707 46.9773C38.6947 46.8787 38.9174 46.6627 39.0881 46.4853C39.2401 46.3307 39.3494 46.2053 39.3494 46.2053L39.3507 46.204C39.3507 46.204 39.7921 46.916 40.1801 47.312C40.6388 47.7786 41.2654 48.14 42.2574 48.14C43.4054 48.14 44.3067 47.276 44.4481 47.1453C44.5694 47.032 44.7268 46.8773 44.8814 46.7106C45.0628 46.5173 45.2347 46.3093 45.3267 46.192C45.4187 46.3093 45.5907 46.5173 45.7721 46.7106C45.9267 46.8773 46.0841 47.032 46.2068 47.1453C46.3468 47.276 47.2494 48.14 48.3961 48.14C49.3881 48.14 50.0147 47.7786 50.4734 47.312C50.8614 46.916 51.3054 46.204 51.3054 46.204C51.3054 46.204 51.4148 46.3307 51.5654 46.4853C51.7374 46.6627 51.9587 46.8773 52.0841 46.9773C52.5481 47.3453 53.0361 47.6373 53.7868 47.8453C54.2788 47.9813 54.7535 48.0293 55.0748 48.0213C54.6748 48.8786 54.184 49.6293 53.6507 50.3427C53.464 50.2667 53.2107 50.2066 52.8094 49.996C51.9454 49.5413 51.4001 49.0093 51.2401 48.7467C51.1427 48.9133 51.1281 48.916 50.9734 49.1306C50.8894 49.236 50.7374 49.44 50.5894 49.592C50.4681 49.72 50.2214 49.9387 50.0854 50.04C48.8441 50.972 47.5614 50.7773 46.6841 50.12C45.8387 49.488 45.3267 48.7067 45.3267 48.7067C45.3267 48.7067 44.8148 49.488 43.9721 50.12C43.0921 50.7773 41.8094 50.972 40.5681 50.04C40.4321 49.9387 40.1867 49.72 40.064 49.592C39.9174 49.44 39.7641 49.236 39.6801 49.1306C39.5268 48.916 39.5107 48.9133 39.4147 48.7467C39.2534 49.0093 38.7081 49.5413 37.8441 49.996C37.4427 50.2066 37.1908 50.268 37.0028 50.344Z" fill="white"/>
<path d="M55.9725 32.4078H55.9765L56.4072 32.2171C56.4072 32.2171 55.2592 29.0424 54.8125 26.9931C55.1192 26.9104 55.3445 26.6344 55.3445 26.3078C55.3445 26.0224 55.1752 25.7784 54.9312 25.6638L55.0539 25.4224C55.0539 25.4224 54.7818 25.3078 54.7818 24.8918V24.6904H55.0232C55.4379 24.6904 55.5539 24.9624 55.5539 24.9624L55.6685 24.8544V24.2024L55.5539 24.0944C55.5539 24.0944 55.4379 24.3678 55.0232 24.3678L54.7805 24.3664V24.1251C54.7805 23.7091 55.0539 23.5931 55.0539 23.5931L54.9445 23.4784H54.2952L54.1859 23.5931C54.1859 23.5931 54.4591 23.7091 54.4591 24.1251V24.3678H54.2152C53.8018 24.3678 53.6859 24.0944 53.6859 24.0944L53.5698 24.2024V24.8544L53.6859 24.9624C53.6859 24.9624 53.8018 24.6904 54.2152 24.6904H54.4591V24.8918C54.4591 25.3078 54.1859 25.4224 54.1859 25.4224L54.3098 25.6651C54.0685 25.7811 53.9006 26.0238 53.9006 26.3078C53.9006 26.6384 54.1312 26.9158 54.4405 26.9958C53.9938 29.0451 52.8472 32.2171 52.8472 32.2171L53.2725 32.4064V35.4198H51.3179V32.4078H51.3219L51.7525 32.2171C51.7525 32.2171 50.6045 29.0424 50.1579 26.9931C50.4645 26.9104 50.6899 26.6344 50.6899 26.3078C50.6899 26.0224 50.5205 25.7784 50.2751 25.6638L50.4006 25.4224C50.4006 25.4224 50.1272 25.3078 50.1272 24.8918V24.6904H50.3672C50.7832 24.6904 50.8992 24.9624 50.8992 24.9624L51.0152 24.8544V24.2024L50.8992 24.0944C50.8992 24.0944 50.7832 24.3678 50.3672 24.3678L50.1258 24.3664V24.1251C50.1258 23.7091 50.3992 23.5931 50.3992 23.5931L50.2912 23.4784H49.6392L49.5299 23.5931C49.5299 23.5931 49.8045 23.7091 49.8045 24.1251V24.3678H49.5618C49.1445 24.3678 49.0299 24.0944 49.0299 24.0944L48.9152 24.2024V24.8544L49.0299 24.9624C49.0299 24.9624 49.1445 24.6904 49.5618 24.6904H49.8045V24.8918C49.8045 25.3078 49.5299 25.4224 49.5299 25.4224L49.6552 25.6651C49.4139 25.7811 49.2459 26.0238 49.2459 26.3078C49.2459 26.6384 49.4752 26.9158 49.7859 26.9958C49.3392 29.0451 48.1925 32.2171 48.1925 32.2171L48.6178 32.4064V35.4198H46.6632V32.4078H46.6672L47.0978 32.2171C47.0978 32.2171 45.9472 27.3718 45.5019 25.1864C45.8085 25.1038 46.0339 24.8278 46.0339 24.4998C46.0339 24.2158 45.8645 23.9704 45.6218 23.8571L45.7458 23.6144C45.7458 23.6144 45.4712 23.4998 45.4712 23.0838V22.8824H45.7125C46.1298 22.8824 46.2445 23.1544 46.2445 23.1544L46.3605 23.0464V22.3958L46.2445 22.2864C46.2445 22.2864 46.1298 22.5598 45.7125 22.5598H45.4712V22.3171C45.4712 21.9011 45.7445 21.7864 45.7445 21.7864L45.6366 21.6704H44.9845L44.8765 21.7864C44.8765 21.7864 45.1485 21.9011 45.1485 22.3171V22.5598H44.9072C44.4912 22.5598 44.3752 22.2864 44.3752 22.2864L44.2605 22.3958V23.0464L44.3752 23.1544C44.3752 23.1544 44.4912 22.8824 44.9072 22.8824H45.1498V23.0838C45.1498 23.4998 44.8765 23.6144 44.8765 23.6144L45.0005 23.8584C44.7578 23.9731 44.5898 24.2171 44.5898 24.4998C44.5898 24.8318 44.8219 25.1104 45.1339 25.1891C44.6885 27.3758 43.5378 32.2171 43.5378 32.2171L43.9632 32.4064V35.4198H42.0098V32.4078H42.0125L42.4445 32.2171C42.4445 32.2171 41.2965 29.0424 40.8499 26.9931C41.1539 26.9104 41.3792 26.6344 41.3792 26.3078C41.3792 26.0224 41.2098 25.7784 40.9658 25.6638L41.0898 25.4064C41.0898 25.4064 40.8165 25.2918 40.8165 24.8758V24.6744H41.0592C41.4738 24.6744 41.5898 24.9478 41.5898 24.9478L41.7045 24.8398V24.1878L41.5898 24.0798C41.5898 24.0798 41.4738 24.3518 41.0592 24.3518H40.8165V24.1091C40.8165 23.6944 41.0898 23.5784 41.0898 23.5784L40.9806 23.4638H40.3298L40.2205 23.5784C40.2205 23.5784 40.4938 23.6944 40.4938 24.1091V24.3518H40.2512C39.8366 24.3518 39.7218 24.0798 39.7218 24.0798L39.6059 24.1878V24.8398L39.7218 24.9478C39.7218 24.9478 39.8366 24.6744 40.2512 24.6744H40.4952V24.8758C40.4952 25.2918 40.2218 25.4064 40.2218 25.4064L40.3472 25.6651C40.1032 25.7798 39.9365 26.0238 39.9365 26.3078C39.9365 26.6384 40.1658 26.9158 40.4752 26.9958C40.0298 29.0451 38.8818 32.2171 38.8818 32.2171L39.3085 32.4064V35.4198H37.3552V32.4078H37.3592L37.7885 32.2171C37.7885 32.2171 36.6405 29.0424 36.1938 26.9931C36.5005 26.9104 36.7245 26.6344 36.7245 26.3078C36.7245 26.0224 36.5551 25.7784 36.3098 25.6638L36.4365 25.4064C36.4365 25.4064 36.1632 25.2918 36.1632 24.8758V24.6744H36.4045C36.8192 24.6744 36.9338 24.9478 36.9338 24.9478L37.0499 24.8398V24.1878L36.9338 24.0798C36.9338 24.0798 36.8192 24.3518 36.4045 24.3518H36.1619V24.1091C36.1619 23.6944 36.4352 23.5784 36.4352 23.5784L36.3258 23.4638H35.6752L35.5672 23.5784C35.5672 23.5784 35.8405 23.6944 35.8405 24.1091V24.3518H35.5978C35.1818 24.3518 35.0672 24.0798 35.0672 24.0798L34.9512 24.1878V24.8398L35.0672 24.9478C35.0672 24.9478 35.1818 24.6744 35.5978 24.6744H35.8405V24.8758C35.8405 25.2918 35.5672 25.4064 35.5672 25.4064L35.6925 25.6651C35.4499 25.7798 35.2818 26.0238 35.2818 26.3078C35.2818 26.6384 35.5112 26.9158 35.8219 26.9958C35.3739 29.0451 34.2285 32.2171 34.2285 32.2171L34.6539 32.4064V35.6424H34.6525V38.2251H55.9725V35.7518V32.4078Z" fill="white"/>
</svg>
